<svg width="88" height="88" viewBox="0 0 88 88" fill="none" xmlns="http://www.w3.org/2000/svg">
<g id="Fact 1">
<g id="Vector">
<path d="M86.591 29.011C86.5495 29.011 80.7833 29.011 80.7833 29.011C78.9586 29.011 78.9862 31.9121 80.7837 31.9121C80.8338 31.9121 86.5912 31.9121 86.5912 31.9121C88.4794 31.9121 88.4599 29.011 86.591 29.011Z" fill="#E8CD5E"/>
<path d="M44 0C27.1958 0 13.5085 13.6739 13.5085 30.4615C13.5085 40.5573 18.5227 49.9762 26.9054 55.6817C27.8734 56.32 28.5316 57.2677 28.822 58.2928C26.6925 58.989 25.1243 60.981 25.1243 63.3407C25.1243 65.3908 26.3053 67.1701 28.0283 68.0404C27.4088 68.9108 27.0603 69.9551 27.0603 71.0769C27.0603 73.5331 28.7446 75.5832 30.9904 76.1829C31.6292 82.7974 37.2047 88 44 88C50.7953 88 56.3708 82.7974 57.0096 76.1829C59.2554 75.5832 60.9397 73.5331 60.9397 71.0769C60.9397 69.9551 60.5912 68.9108 59.9717 68.0404C61.6947 67.1701 62.8757 65.3908 62.8757 63.3407C62.8757 60.981 61.3075 58.989 59.178 58.2928C59.4683 57.2677 60.1266 56.32 61.0946 55.6817C69.4772 49.9762 74.4915 40.5573 74.4915 30.4615C74.4915 13.6739 60.8042 0 44 0ZM44 85.0989C38.889 85.0989 34.6492 81.3081 33.933 76.3956H54.067C53.3507 81.3081 49.111 85.0989 44 85.0989ZM55.6158 73.4945H32.3842C31.0484 73.4945 29.9642 72.4114 29.9642 71.0769C29.9642 69.7424 31.0484 68.6593 32.3842 68.6593H55.6158C56.9516 68.6593 58.0357 69.7424 58.0357 71.0769C58.0357 72.4114 56.9516 73.4945 55.6158 73.4945ZM59.9717 63.3407C59.9717 64.6752 58.8876 65.7582 57.5518 65.7582H30.4482C29.1124 65.7582 28.0283 64.6752 28.0283 63.3407C28.0283 62.0062 29.1124 60.9231 30.4482 60.9231H57.5518C58.8876 60.9231 59.9717 62.0062 59.9717 63.3407ZM40.3024 41.5824H47.6977L46.5167 58.022H41.4833L40.3024 41.5824ZM59.4683 53.2835C57.7841 54.4053 56.6419 56.1073 56.2547 58.022H49.4401L50.6016 41.5824H53.6798C56.6225 41.5824 59.0037 39.2034 59.0037 36.2637C59.0037 33.3239 56.6225 30.9451 53.6798 30.9451C50.7565 30.9451 48.2978 33.2272 48.0849 36.1477L47.9107 38.6813H40.0893L39.9151 36.1477C39.7022 33.2272 37.2435 30.9451 34.3202 30.9451C31.3775 30.9451 28.9963 33.3239 28.9963 36.2637C28.9963 39.2034 31.3775 41.5824 34.3202 41.5824H37.3984L38.56 58.022H31.7453C31.3581 56.1073 30.2159 54.4053 28.5317 53.2835C20.9427 48.1196 16.4125 39.5903 16.4125 30.4615C16.4125 15.2598 28.7833 2.9011 44 2.9011C59.2167 2.9011 71.5875 15.2598 71.5875 30.4615C71.5875 39.5903 67.0573 48.1196 59.4683 53.2835ZM50.8146 38.6813L50.9888 36.3604C51.0856 34.9486 52.2666 33.8462 53.6798 33.8462C55.0156 33.8462 56.0998 34.9292 56.0998 36.2637C56.0998 37.5982 55.0156 38.6813 53.6798 38.6813H50.8146ZM37.1854 38.6813H34.3202C32.9843 38.6813 31.9002 37.5982 31.9002 36.2637C31.9002 34.9292 32.9843 33.8462 34.3202 33.8462C35.7334 33.8462 36.9144 34.9486 37.0112 36.3604L37.1854 38.6813Z" fill="#E8CD5E"/>
<path d="M7.21665 29.011C7.21665 29.011 1.45047 29.011 1.40898 29.011C-0.459862 29.011 -0.479357 31.9121 1.40875 31.9121C1.40875 31.9121 7.1662 31.9121 7.2163 31.9121C9.01377 31.9121 9.04143 29.011 7.21665 29.011Z" fill="#E8CD5E"/>
<path d="M11.2474 13.6735C11.2474 13.6735 6.01589 11.2469 5.98044 11.2304C4.27052 10.4374 3.05486 13.0719 4.75698 13.8614C4.75698 13.8614 9.98742 16.2874 10.0239 16.3044C11.6789 17.0711 12.962 14.4688 11.2474 13.6735Z" fill="#E8CD5E"/>
<path d="M10.0242 44.6186C10.0242 44.6186 4.78051 47.0507 4.75712 47.0615C3.12742 47.8175 4.28246 50.4801 5.98021 49.6926C5.99887 49.6839 11.2246 47.2601 11.2473 47.2496C12.8643 46.4996 11.7586 43.8164 10.0242 44.6186Z" fill="#E8CD5E"/>
<path d="M77.9761 16.3044C78.0126 16.2874 83.243 13.8614 83.243 13.8614C84.9451 13.0719 83.7295 10.4374 82.0196 11.2304C81.9841 11.2469 76.7526 13.6735 76.7526 13.6735C75.038 14.4688 76.3211 17.0711 77.9761 16.3044Z" fill="#E8CD5E"/>
<path d="M83.2429 47.0615C83.2195 47.0507 77.9758 44.6186 77.9758 44.6186C76.2415 43.8165 75.1357 46.4996 76.7527 47.2496C76.7754 47.2601 82.0011 49.6839 82.0198 49.6927C83.7175 50.4801 84.8726 47.8175 83.2429 47.0615Z" fill="#E8CD5E"/>
</g>
</g>
</svg>
